<svg xmlns="http://www.w3.org/2000/svg" width="32.735" height="36.594" viewBox="0 0 32.735 36.594">
  <g id="fruits-basket" transform="translate(-77.885 -25.507)">
    <path id="Path_3012" data-name="Path 3012" d="M183.57,122.842a4.987,4.987,0,0,0-1.894,3.529h-9c-.913-2.67-.557-5.843,1.679-6.6a3.157,3.157,0,0,1,2.543.371,7.972,7.972,0,0,1,1.284-4.325.491.491,0,0,1,.678-.122.5.5,0,0,1,.122.683,7,7,0,0,0-1.108,3.822c0,.059,0,.107,0,.161h.044c1.264-.015,1.972-1.123,3.544-.591a3.4,3.4,0,0,1,2.109,3.075Z" transform="translate(-88.655 -78.289)" fill="#48e22b"/>
    <path id="Path_3013" data-name="Path 3013" d="M356.4,140.767a2.719,2.719,0,0,1-1.816.859,2.291,2.291,0,0,1-1.377-.674l-.381.781a3,3,0,0,1,1.284,3.969,2.417,2.417,0,0,0-.483,1.586,1.205,1.205,0,0,1,.015.186h-7.869a3.981,3.981,0,0,1,2.109-3.148c.571-.3.537-.835.908-1.484a3.03,3.03,0,0,1,3.109-1.43l1.5-3.08a.489.489,0,1,1,.879.429l-.591,1.215a1.948,1.948,0,0,1,1-.249,2.707,2.707,0,0,1,1.718,1.04Z" transform="translate(-251.778 -99.392)" fill="#48e22b"/>
    <path id="Path_3014" data-name="Path 3014" d="M164.219,378.77l-3.1,6.692a3.929,3.929,0,0,1-3.549,2.265h-12.1a3.922,3.922,0,0,1-3.544-2.265l-3.1-6.692Z" transform="translate(-57.276 -325.626)" fill="#48e22b"/>
    <path id="Path_3015" data-name="Path 3015" d="M109.056,49.058h-1.4a13.741,13.741,0,1,0-26.808,0h-1.41a1.534,1.534,0,0,0-1.108.459,1.56,1.56,0,0,0,1.108,2.651h29.62a1.555,1.555,0,1,0,0-3.11ZM94.251,33.282a12.779,12.779,0,0,1,12.408,15.776H81.843A12.779,12.779,0,0,1,94.251,33.282Z" transform="translate(0 0)" fill="#48e22b"/>
    <circle id="Ellipse_135" data-name="Ellipse 135" cx="6" cy="6" r="6" transform="translate(87.885 25.507)" fill="#48e22b"/>
    <path id="Path_3016" data-name="Path 3016" d="M236.838,144.3l3.473-3.087a.579.579,0,1,0-.772-.862l-2.508,2.231v-7.59a.579.579,0,1,0-1.158,0v7.59l-2.508-2.231a.593.593,0,0,0-.823.046.585.585,0,0,0,.051.816l3.473,3.087a.585.585,0,0,0,.772,0Z" transform="translate(330.389 170.948) rotate(180)"/>
  </g>
</svg>
